<svg xmlns="http://www.w3.org/2000/svg" width="386.5" height="267.5" viewBox="0 0 386.5 267.5">
  <g id="Group_1" data-name="Group 1" transform="translate(-431 -809)">
    <path id="Path_1" data-name="Path 1" d="M0,0S91.875-88.5,186-88.5,376.5,0,376.5,0" transform="translate(436 902.5)" fill="none" stroke="#a2c5ac" stroke-width="10"/>
    <line id="Line_1" data-name="Line 1" y1="57" transform="translate(812.5 850.5)" fill="none" stroke="#a2c5ac" stroke-width="10"/>
    <line id="Line_2" data-name="Line 2" x1="50" transform="translate(762.5 902.5)" fill="none" stroke="#a2c5ac" stroke-width="10"/>
    <path id="Path_2" data-name="Path 2" d="M376.5-88.5S284.625,0,190.5,0,0-88.5,0-88.5" transform="translate(436 1071.5)" fill="none" stroke="#a2c5ac" stroke-width="10"/>
    <line id="Line_3" data-name="Line 3" y2="57" transform="translate(436 978)" fill="none" stroke="#a2c5ac" stroke-width="10"/>
    <line id="Line_4" data-name="Line 4" x2="50" transform="translate(436 983)" fill="none" stroke="#a2c5ac" stroke-width="10"/>
    <g id="nano_mark" data-name="nano mark" transform="translate(349.903 814.4)">
      <path id="Path_3" data-name="Path 3" d="M462.4,128.437a13.419,13.419,0,0,1-26.838,0c0-10.066-3.36-13.412-13.412-13.412s-13.412,3.36-13.412,13.412a13.419,13.419,0,1,1-13.426-13.412c10.066,0,13.412-3.36,13.412-13.412a13.412,13.412,0,0,1,26.824,0c0,10.066,3.36,13.412,13.412,13.412A13.42,13.42,0,0,1,462.4,128.437Z" transform="translate(-174.462 -0.087)" fill="#7f6a93"/>
      <circle id="Ellipse_1" data-name="Ellipse 1" cx="13.412" cy="13.412" r="13.412" transform="translate(180.6 141.775)" fill="#7f6a93"/>
      <path id="Path_4" data-name="Path 4" d="M1066.473,101.512a13.414,13.414,0,0,1-13.412,13.412c-10.066,0-13.412,3.36-13.412,13.412a13.414,13.414,0,0,1-13.412,13.412c-10.066,0-13.412,3.36-13.412,13.412a13.412,13.412,0,1,1-13.412-13.412c10.066,0,13.412-3.36,13.412-13.412a13.414,13.414,0,0,1,13.412-13.412c10.066,0,13.412-3.36,13.412-13.412a13.412,13.412,0,0,1,26.824,0Z" transform="translate(-698.022)" fill="#7f6a93"/>
    </g>
  </g>
</svg>
